<svg width="228" height="225" viewBox="0 0 228 225" fill="none" xmlns="http://www.w3.org/2000/svg">
<g clip-path="url(#clip0_404_2174)">
<path d="M67.0048 222.652C70.6649 219.087 72.8881 213.455 72.305 207.972C71.722 202.489 68.1109 197.448 63.4267 196.284C58.7426 195.119 53.403 198.342 51.9802 203.617C51.1972 193.447 50.295 182.851 45.6047 174.191C41.3578 166.349 34.0021 160.737 26.0302 159.734C18.0583 158.73 9.66485 162.521 4.69305 169.775C-0.278746 177.029 -1.49607 187.574 1.98605 195.902C4.5512 202.037 9.27712 206.602 14.2287 210.316C30.2291 222.218 49.4194 227.058 68.2688 223.945" fill="#F2F2F2"/>
<path d="M12.5762 162.731C19.154 168.908 25.1884 175.816 30.5922 183.355C39.0492 195.114 45.8927 208.298 50.8842 222.447C51.2496 223.479 49.7956 223.929 49.4343 222.908C46.26 213.962 42.3329 205.396 37.7091 197.333C30.4989 184.738 21.6654 173.483 11.5129 163.957C10.7623 163.252 11.8317 162.033 12.5762 162.731Z" fill="white"/>
<path d="M69.5328 222.652C65.8727 219.087 63.6496 213.455 64.2326 207.972C64.8156 202.489 68.4267 197.448 73.1109 196.284C77.795 195.119 83.1347 198.342 84.5574 203.617C85.3404 193.447 86.2427 182.851 90.9329 174.191C95.1798 166.349 102.536 160.737 110.507 159.734C118.479 158.73 126.873 162.521 131.845 169.775C136.816 177.029 138.034 187.574 134.552 195.902C131.986 202.037 127.261 206.602 122.309 210.316C106.309 222.218 87.1182 227.058 68.2688 223.945" fill="#F2F2F2"/>
<path d="M123.961 162.731C117.383 168.908 111.349 175.816 105.945 183.355C97.4881 195.114 90.6447 208.298 85.6531 222.447C85.2877 223.479 86.7417 223.929 87.103 222.908C95.2701 199.912 108.308 179.644 125.024 163.957C125.775 163.252 124.706 162.033 123.961 162.731Z" fill="white"/>
<path d="M80.394 101.216C87.1651 101.216 92.6542 94.8878 92.6542 87.082C92.6542 79.2761 87.1651 72.9482 80.394 72.9482C73.6229 72.9482 68.1338 79.2761 68.1338 87.082C68.1338 94.8878 73.6229 101.216 80.394 101.216Z" fill="#F2F2F2"/>
<path d="M42.5923 38.3606H127.062V43.6882H53.3756C49.0431 43.6882 44.7531 44.672 40.7504 46.5833C36.7477 48.4946 33.1108 51.2961 30.0473 54.8277C26.9837 58.3594 24.5536 62.5521 22.8957 67.1664C21.2377 71.7808 20.3844 76.7264 20.3844 81.7209V142.249H11.1415C10.733 142.249 10.3412 142.062 10.0523 141.729C9.76339 141.396 9.60108 140.944 9.60107 140.473V76.3933C9.60107 71.3988 10.4544 66.4531 12.1124 61.8388C13.7703 57.2244 16.2005 53.0318 19.264 49.5001C22.3275 45.9684 25.9644 43.167 29.9671 41.2556C33.9698 39.3443 38.2599 38.3606 42.5923 38.3606Z" fill="#F2F2F2"/>
<path d="M58.8398 222.948V142.021H79.4054V222.948C79.4048 223.492 79.2171 224.014 78.8835 224.398C78.5499 224.783 78.0975 224.999 77.6256 225H60.6196C60.1477 224.999 59.6953 224.783 59.3617 224.398C59.0281 224.014 58.8404 223.492 58.8398 222.948Z" fill="#3F3D56"/>
<path d="M5.25098 140.426V74.6196C5.26124 64.1437 8.87567 54.1003 15.3013 46.6927C21.7269 39.2851 30.439 35.1183 39.5263 35.1064H126.667V142.705H7.22843C6.70416 142.705 6.20154 142.464 5.83083 142.037C5.46011 141.609 5.25158 141.03 5.25098 140.426ZM125.876 36.0183H39.5263C30.6488 36.0299 22.1377 40.1005 15.8604 47.3372C9.58301 54.5738 6.05199 64.3855 6.04196 74.6196V140.426C6.0423 140.788 6.16741 141.136 6.38985 141.392C6.61228 141.649 6.91386 141.793 7.22843 141.793H125.876V36.0183Z" fill="#3F3D56"/>
<path d="M80.3939 94.3769C78.5065 94.3745 76.697 93.509 75.3624 91.9705C74.0278 90.432 73.2771 88.346 73.275 86.1702V27.3556C73.2747 26.993 73.1496 26.6453 72.9271 26.3889C72.7047 26.1325 72.4031 25.9882 72.0885 25.9878H44.4042C43.8799 25.9871 43.3773 25.7467 43.0066 25.3194C42.6359 24.892 42.4274 24.3126 42.4268 23.7082V2.27964C42.4274 1.67525 42.6359 1.09582 43.0066 0.66846C43.3773 0.241097 43.8799 0.000699866 44.4042 0H85.5352C86.0595 0.000691437 86.5621 0.241088 86.9328 0.668453C87.3035 1.09582 87.5121 1.67525 87.5127 2.27964V86.1702C87.5106 88.346 86.7599 90.432 85.4253 91.9705C84.0907 93.509 82.2812 94.3745 80.3939 94.3769Z" fill="#6C63FF"/>
<path d="M129.831 34.1946C135.797 34.1802 141.524 36.8987 145.751 41.7519C149.979 46.6052 152.361 53.1957 152.374 60.0737V134.987H196.668C198.448 134.983 200.156 135.793 201.417 137.241C202.678 138.688 203.388 140.654 203.392 142.705H107.288V60.0737C107.3 53.1957 109.682 46.6052 113.91 41.7519C118.137 36.8987 123.864 34.1802 129.831 34.1946Z" fill="#3F3D56"/>
<path d="M124.421 76.8544L129.089 99.0836L220.4 73.6012L215.732 51.372C215.676 51.1002 215.56 50.8492 215.397 50.6424C215.234 50.4355 215.029 50.2795 214.799 50.1888C214.63 50.1202 214.451 50.0891 214.272 50.0973L161.49 18.5918C161.181 18.4098 160.825 18.3611 160.487 18.4547C160.15 18.5483 159.852 18.7779 159.649 19.1021L134.211 59.9959L124.621 75.4167C124.603 75.4437 124.591 75.4747 124.585 75.5076C124.579 75.5405 124.579 75.5745 124.586 75.6074C124.39 75.9818 124.331 76.4299 124.421 76.8544Z" fill="white"/>
<path d="M124.586 75.6074C124.59 75.6363 124.6 75.6639 124.614 75.6886C124.627 75.7133 124.645 75.7346 124.666 75.7514C124.691 75.7709 124.719 75.7845 124.748 75.7912C124.778 75.7979 124.808 75.7976 124.838 75.7903C124.885 75.7757 124.927 75.7423 124.956 75.6958L124.989 75.6433L125.488 74.8383L134.556 60.2649L159.987 19.3805C160.132 19.1488 160.344 18.9848 160.585 18.9182C160.826 18.8516 161.08 18.8868 161.3 19.0174L213.673 50.2788L214.143 50.5601C214.162 50.5693 214.182 50.5771 214.202 50.5836C214.237 50.5762 214.273 50.5722 214.309 50.5718C214.358 50.5528 214.399 50.5129 214.424 50.4602C214.436 50.4324 214.444 50.402 214.447 50.3707C214.449 50.3395 214.447 50.3079 214.439 50.2779C214.43 50.2479 214.417 50.22 214.4 50.1959C214.383 50.1717 214.361 50.1517 214.337 50.1371L214.272 50.0973L161.49 18.5918C161.181 18.4098 160.826 18.3611 160.488 18.4547C160.15 18.5483 159.853 18.7779 159.649 19.1021L134.211 59.9959L124.621 75.4167C124.604 75.4437 124.592 75.4747 124.586 75.5076C124.579 75.5405 124.58 75.5745 124.586 75.6074Z" fill="#3F3D56"/>
<path d="M152.01 77.874L154.042 78.1339L169.127 80.0604L179.128 81.3367L179.718 81.4124L192.197 70.1762L192.675 69.7458L195.622 67.0922L206.108 57.6516L206.171 56.9885L209.901 18.1827C209.952 17.6483 209.817 17.1125 209.525 16.6928C209.234 16.273 208.81 16.0035 208.347 15.9434L158.572 9.58697C158.108 9.52861 157.644 9.68437 157.28 10.0201C156.916 10.3559 156.682 10.8443 156.629 11.3784L153.999 38.7511L152.54 53.927L151.235 67.5038L150.63 73.809L150.454 75.6353C150.403 76.1698 150.539 76.7056 150.83 77.1252C151.122 77.5449 151.546 77.8141 152.01 77.874Z" fill="#E6E6E6"/>
<path d="M165.688 43.8591L187.248 46.612L194.895 47.588C195.232 47.6311 195.574 47.5971 195.9 47.488C196.226 47.3789 196.531 47.1968 196.796 46.9521C197.061 46.7074 197.282 46.4049 197.445 46.0618C197.609 45.7188 197.713 45.3419 197.75 44.9527C197.787 44.5635 197.758 44.1697 197.663 43.7937C197.569 43.4176 197.411 43.0667 197.198 42.7611C196.986 42.4554 196.724 42.2009 196.426 42.0122C196.129 41.8234 195.802 41.7041 195.464 41.661L185.954 40.4468L166.259 37.9292C165.577 37.8423 164.893 38.0712 164.357 38.5655C163.822 39.0598 163.478 39.7791 163.403 40.5652C163.327 41.3513 163.525 42.1398 163.954 42.7575C164.382 43.3752 165.006 43.7714 165.688 43.8591Z" fill="white"/>
<path d="M164.46 54.8543C164.516 54.8657 164.571 54.8772 164.628 54.8835L189.657 58.0799L193.836 58.6147C194.518 58.7017 195.202 58.4727 195.737 57.9782C196.273 57.4838 196.616 56.7642 196.692 55.978C196.767 55.1917 196.569 54.4031 196.14 53.7856C195.711 53.1681 195.087 52.7723 194.405 52.6854L188.362 51.9147L168.536 49.3821L165.2 48.9559C164.532 48.8701 163.862 49.0868 163.331 49.5601C162.8 50.0335 162.449 50.7264 162.353 51.4925C162.257 52.2585 162.423 53.0375 162.817 53.6649C163.21 54.2922 163.799 54.7188 164.46 54.8543Z" fill="white"/>
<path d="M161.627 64.6038C161.832 64.9963 162.113 65.3291 162.448 65.5762C162.783 65.8233 163.162 65.9782 163.558 66.0287L173.816 67.3385L192.087 69.6719L192.091 69.6708L192.675 69.7459L195.622 67.0923C195.64 66.8907 195.641 66.6875 195.623 66.4859C195.56 65.809 195.3 65.1769 194.884 64.694C194.467 64.2112 193.921 63.9066 193.334 63.8306L190.796 63.5056L180.728 62.2212L173.484 61.2949L164.126 60.0994C163.647 60.0382 163.162 60.1329 162.727 60.3727C162.291 60.6125 161.923 60.9879 161.663 61.4565C161.403 61.9251 161.262 62.4681 161.256 63.0243C161.249 63.5804 161.378 64.1276 161.627 64.6038Z" fill="white"/>
<path d="M176.036 30.4192L181.401 31.1042L183.77 31.4075L187.35 31.8642C188.032 31.9512 188.716 31.7222 189.251 31.2277C189.787 30.7333 190.13 30.0137 190.206 29.2275C190.281 28.4412 190.083 27.6526 189.654 27.0351C189.225 26.4176 188.601 26.0218 187.919 25.9349L176.608 24.4916C175.926 24.4043 175.242 24.6327 174.706 25.1268C174.171 25.6208 173.827 26.34 173.751 27.126C173.675 27.9121 173.874 28.7006 174.302 29.3182C174.731 29.9358 175.355 30.3319 176.036 30.4192Z" fill="white"/>
<path d="M132.17 46.9295L138.711 78.0756L149.627 80.4684L159.724 82.6846L170.558 85.0611L174.02 85.8205C174.223 85.8647 174.431 85.8586 174.632 85.8026C174.832 85.7467 175.02 85.6422 175.182 85.4961L177.96 82.9955L179.718 81.4125L192.197 70.1763L184.262 32.392C184.184 32.0161 184.013 31.6743 183.77 31.4076C183.557 31.1717 183.296 31.0013 183.011 30.9123C182.726 30.8233 182.426 30.8185 182.139 30.8983L133.466 44.4815C133.013 44.6084 132.622 44.9374 132.379 45.3964C132.136 45.8554 132.061 46.4068 132.17 46.9295Z" fill="#6C63FF"/>
<path d="M147.167 71.7073C147.329 72.4756 147.749 73.1384 148.335 73.5502C148.92 73.9621 149.623 74.0893 150.29 73.9039L178.85 65.9336C179.516 65.7465 180.091 65.2625 180.448 64.5877C180.806 63.9128 180.916 63.1023 180.756 62.3337C180.748 62.2956 180.739 62.258 180.728 62.2212C180.545 61.4802 180.121 60.8493 179.544 60.4608C178.967 60.0722 178.282 59.9562 177.633 60.137L149.073 68.1074C148.406 68.294 147.831 68.778 147.474 69.4529C147.117 70.1278 147.007 70.9386 147.167 71.7073Z" fill="white"/>
<path d="M149.626 80.4684L159.724 82.6846L181.114 76.7153C181.781 76.5292 182.356 76.0454 182.714 75.3702C183.071 74.6951 183.181 73.884 183.02 73.1154C182.858 72.3467 182.438 71.6834 181.853 71.2715C181.267 70.8595 180.564 70.7326 179.897 70.9187L151.337 78.889C150.74 79.0543 150.214 79.4605 149.855 80.0341C149.768 80.1712 149.692 80.3164 149.626 80.4684Z" fill="white"/>
<path d="M170.558 85.0609L174.02 85.8203C174.222 85.8645 174.431 85.8584 174.631 85.8025C174.832 85.7465 175.02 85.642 175.182 85.4959L177.96 82.9954L170.558 85.0609Z" fill="white"/>
<path d="M152.922 55.006C153.084 55.7743 153.504 56.4371 154.089 56.849C154.675 57.2608 155.378 57.388 156.045 57.2026L167.107 54.1155C167.773 53.9285 168.348 53.4444 168.705 52.7696C169.062 52.0948 169.173 51.2842 169.012 50.5156C168.926 50.1026 168.764 49.716 168.536 49.3821C168.23 48.9308 167.818 48.5906 167.348 48.4021C166.879 48.2135 166.373 48.1847 165.89 48.319L154.828 51.4061C154.161 51.5923 153.586 52.0761 153.228 52.7512C152.871 53.4263 152.761 54.2373 152.922 55.006Z" fill="white"/>
<path d="M159.723 82.6843L170.559 85.0613L174.02 85.8211C174.222 85.8647 174.431 85.8583 174.631 85.8024C174.831 85.7465 175.019 85.6424 175.182 85.4968L177.961 82.9956L176.986 83.2678L174.927 85.1193C174.81 85.2233 174.676 85.2977 174.533 85.3377C174.39 85.3776 174.241 85.3821 174.097 85.351L171.534 84.7891L160.699 82.4121L159.723 82.6843ZM192.089 69.6726L192.195 70.1749L192.675 69.7442L192.089 69.6726ZM159.723 82.6843L170.559 85.0613L174.02 85.8211C174.222 85.8647 174.431 85.8583 174.631 85.8024C174.831 85.7465 175.019 85.6424 175.182 85.4968L177.961 82.9956L176.986 83.2678L174.927 85.1193C174.81 85.2233 174.676 85.2977 174.533 85.3377C174.39 85.3776 174.241 85.3821 174.097 85.351L171.534 84.7891L160.699 82.4121L159.723 82.6843ZM159.723 82.6843L170.559 85.0613L174.02 85.8211C174.222 85.8647 174.431 85.8583 174.631 85.8024C174.831 85.7465 175.019 85.6424 175.182 85.4968L177.961 82.9956L176.986 83.2678L174.927 85.1193C174.81 85.2233 174.676 85.2977 174.533 85.3377C174.39 85.3776 174.241 85.3821 174.097 85.351L171.534 84.7891L160.699 82.4121L159.723 82.6843ZM124.421 76.8544L136.648 135.081C136.738 135.511 136.973 135.882 137.301 136.113C137.629 136.344 138.023 136.415 138.396 136.311L226.892 111.615C227.265 111.51 227.587 111.239 227.787 110.861C227.987 110.483 228.049 110.029 227.959 109.598L215.732 51.3719C215.676 51.1001 215.56 50.8492 215.397 50.6423C215.234 50.4355 215.029 50.2795 214.799 50.1888C214.63 50.1201 214.451 50.0891 214.272 50.0972C214.063 50.1042 213.858 50.1663 213.673 50.2788C213.588 50.3255 213.507 50.3832 213.433 50.4507L206.17 56.9886L195.622 66.4872L192.089 69.6691L192.089 69.6726L192.086 69.6734L179.128 81.3351L176.986 83.2678L174.927 85.1193C174.81 85.2233 174.676 85.2977 174.533 85.3377C174.39 85.3776 174.241 85.3821 174.097 85.351L171.534 84.7891L160.699 82.4121L149.853 80.0341L126.1 74.823C125.897 74.7768 125.688 74.782 125.488 74.8383C125.218 74.9143 124.972 75.0783 124.781 75.3106C124.707 75.4018 124.642 75.5012 124.586 75.6073C124.39 75.9818 124.331 76.4299 124.421 76.8544ZM159.723 82.6843L170.559 85.0613L174.02 85.8211C174.222 85.8647 174.431 85.8583 174.631 85.8024C174.831 85.7465 175.019 85.6424 175.182 85.4968L177.961 82.9956L176.986 83.2678L174.927 85.1193C174.81 85.2233 174.676 85.2977 174.533 85.3377C174.39 85.3776 174.241 85.3821 174.097 85.351L171.534 84.7891L160.699 82.4121L159.723 82.6843ZM159.723 82.6843L170.559 85.0613L174.02 85.8211C174.222 85.8647 174.431 85.8583 174.631 85.8024C174.831 85.7465 175.019 85.6424 175.182 85.4968L177.961 82.9956L176.986 83.2678L174.927 85.1193C174.81 85.2233 174.676 85.2977 174.533 85.3377C174.39 85.3776 174.241 85.3821 174.097 85.351L171.534 84.7891L160.699 82.4121L159.723 82.6843ZM159.723 82.6843L170.559 85.0613L174.02 85.8211C174.222 85.8647 174.431 85.8583 174.631 85.8024C174.831 85.7465 175.019 85.6424 175.182 85.4968L177.961 82.9956L176.986 83.2678L174.927 85.1193C174.81 85.2233 174.676 85.2977 174.533 85.3377C174.39 85.3776 174.241 85.3821 174.097 85.351L171.534 84.7891L160.699 82.4121L159.723 82.6843Z" fill="white"/>
<path d="M159.723 82.6843L170.559 85.0613L174.02 85.821C174.222 85.8647 174.431 85.8583 174.631 85.8024C174.831 85.7465 175.019 85.6424 175.182 85.4968L177.961 82.9956L176.986 83.2678L174.927 85.1193C174.81 85.2233 174.676 85.2977 174.533 85.3377C174.39 85.3776 174.241 85.3821 174.097 85.351L171.534 84.7891L160.699 82.4121L159.723 82.6843ZM192.089 69.6726L192.195 70.1749L192.675 69.7441L192.089 69.6726ZM159.723 82.6843L170.559 85.0613L174.02 85.821C174.222 85.8647 174.431 85.8583 174.631 85.8024C174.831 85.7465 175.019 85.6424 175.182 85.4968L177.961 82.9956L176.986 83.2678L174.927 85.1193C174.81 85.2233 174.676 85.2977 174.533 85.3377C174.39 85.3776 174.241 85.3821 174.097 85.351L171.534 84.7891L160.699 82.4121L159.723 82.6843ZM159.723 82.6843L170.559 85.0613L174.02 85.821C174.222 85.8647 174.431 85.8583 174.631 85.8024C174.831 85.7465 175.019 85.6424 175.182 85.4968L177.961 82.9956L176.986 83.2678L174.927 85.1193C174.81 85.2233 174.676 85.2977 174.533 85.3377C174.39 85.3776 174.241 85.3821 174.097 85.351L171.534 84.7891L160.699 82.4121L159.723 82.6843ZM124.988 75.6432L125.042 75.6897C125.051 75.6727 125.067 75.6575 125.079 75.6397C125.199 75.496 125.347 75.3887 125.512 75.3276C125.677 75.2665 125.852 75.2535 126.022 75.2897L149.627 80.4663L159.723 82.6843L170.559 85.0613L174.02 85.821C174.222 85.8647 174.431 85.8583 174.631 85.8024C174.831 85.7465 175.019 85.6424 175.182 85.4968L177.961 82.9956L176.986 83.2678L174.927 85.1193C174.81 85.2233 174.676 85.2977 174.533 85.3377C174.39 85.3776 174.241 85.3821 174.097 85.351L171.534 84.7891L160.699 82.4121L149.853 80.0341L126.1 74.823C125.897 74.7767 125.688 74.7819 125.488 74.8383L124.988 75.6432ZM124.421 76.8544L136.648 135.081C136.738 135.511 136.973 135.882 137.301 136.113C137.629 136.344 138.023 136.415 138.396 136.311L226.892 111.615C227.265 111.51 227.587 111.239 227.787 110.861C227.987 110.483 228.049 110.029 227.959 109.598L215.732 51.3719C215.676 51.1001 215.56 50.8492 215.397 50.6423C215.234 50.4355 215.029 50.2795 214.799 50.1888C214.63 50.1201 214.451 50.0891 214.272 50.0972C214.063 50.1042 213.858 50.1663 213.673 50.2788C213.588 50.3255 213.507 50.3832 213.433 50.4507L206.17 56.9886L195.622 66.4872L192.089 69.6691L192.089 69.6726L192.086 69.6734L179.128 81.3351L176.986 83.2678L174.927 85.1193C174.81 85.2233 174.676 85.2977 174.533 85.3377C174.39 85.3776 174.241 85.3821 174.097 85.351L171.534 84.7891L160.699 82.4121L149.853 80.0341L126.1 74.823C125.897 74.7767 125.688 74.7819 125.488 74.8383C125.218 74.9143 124.972 75.0783 124.781 75.3106C124.707 75.4018 124.642 75.5012 124.586 75.6073C124.39 75.9818 124.331 76.4299 124.421 76.8544ZM124.824 76.7419C124.788 76.5703 124.785 76.3915 124.817 76.2187C124.849 76.0459 124.913 75.8834 125.006 75.7431C125.015 75.7225 125.027 75.7043 125.042 75.6897C125.051 75.6727 125.067 75.6575 125.079 75.6397C125.199 75.496 125.347 75.3887 125.512 75.3276C125.677 75.2665 125.852 75.2535 126.022 75.2897L149.627 80.4663L159.723 82.6843L170.559 85.0613L174.02 85.821C174.222 85.8647 174.431 85.8583 174.631 85.8024C174.831 85.7465 175.019 85.6424 175.182 85.4968L177.961 82.9956L179.718 81.4127L192.195 70.1749L192.675 69.7441L195.62 67.0918L206.108 57.6498L213.69 50.8239C213.805 50.7203 213.939 50.6461 214.081 50.6064C214.12 50.5952 214.161 50.5876 214.201 50.5836C214.237 50.5761 214.273 50.5722 214.309 50.5717C214.43 50.5704 214.55 50.593 214.665 50.6387C214.828 50.7043 214.975 50.816 215.091 50.9635C215.208 51.1111 215.29 51.2899 215.332 51.4836L227.559 109.71C227.591 109.863 227.597 110.021 227.576 110.176C227.555 110.331 227.507 110.48 227.436 110.614C227.365 110.748 227.272 110.865 227.162 110.957C227.052 111.05 226.927 111.116 226.795 111.153L138.3 135.85C138.033 135.924 137.751 135.873 137.517 135.707C137.283 135.542 137.115 135.276 137.051 134.968L124.824 76.7419ZM159.723 82.6843L170.559 85.0613L174.02 85.821C174.222 85.8647 174.431 85.8583 174.631 85.8024C174.831 85.7465 175.019 85.6424 175.182 85.4968L177.961 82.9956L176.986 83.2678L174.927 85.1193C174.81 85.2233 174.676 85.2977 174.533 85.3377C174.39 85.3776 174.241 85.3821 174.097 85.351L171.534 84.7891L160.699 82.4121L159.723 82.6843ZM159.723 82.6843L170.559 85.0613L174.02 85.821C174.222 85.8647 174.431 85.8583 174.631 85.8024C174.831 85.7465 175.019 85.6424 175.182 85.4968L177.961 82.9956L176.986 83.2678L174.927 85.1193C174.81 85.2233 174.676 85.2977 174.533 85.3377C174.39 85.3776 174.241 85.3821 174.097 85.351L171.534 84.7891L160.699 82.4121L159.723 82.6843ZM159.723 82.6843L170.559 85.0613L174.02 85.821C174.222 85.8647 174.431 85.8583 174.631 85.8024C174.831 85.7465 175.019 85.6424 175.182 85.4968L177.961 82.9956L176.986 83.2678L174.927 85.1193C174.81 85.2233 174.676 85.2977 174.533 85.3377C174.39 85.3776 174.241 85.3821 174.097 85.351L171.534 84.7891L160.699 82.4121L159.723 82.6843Z" fill="#3F3D56"/>
<path d="M203.827 100.175C203.628 99.221 203.765 98.2147 204.208 97.377C204.652 96.5392 205.365 95.9384 206.193 95.7065L217.362 92.5894C218.188 92.3623 219.059 92.5221 219.784 93.0338C220.508 93.5454 221.027 94.3673 221.227 95.3193C221.427 96.2713 221.292 97.2758 220.85 98.1128C220.409 98.9498 219.698 99.5511 218.873 99.7849L207.703 102.902C206.876 103.132 206.003 102.974 205.276 102.463C204.55 101.951 204.028 101.129 203.827 100.175Z" fill="#6C63FF"/>
<path d="M80.3939 89.3617C81.9229 89.3617 83.1624 87.9329 83.1624 86.1702C83.1624 84.4076 81.9229 82.9788 80.3939 82.9788C78.865 82.9788 77.6255 84.4076 77.6255 86.1702C77.6255 87.9329 78.865 89.3617 80.3939 89.3617Z" fill="white"/>
</g>
<defs>
<clipPath id="clip0_404_2174">
<rect width="228" height="225" fill="white"/>
</clipPath>
</defs>
</svg>
