<svg width="204" height="64" viewBox="0 0 204 64" fill="none" xmlns="http://www.w3.org/2000/svg">
<path d="M32.9953 37.56V43H16.8032V20.28H32.7073V25.72H23.0433V28.92H31.2992V33.976H23.0433V37.56H32.9953ZM50.649 43.32C49.433 43.32 48.377 43.0853 47.481 42.616C46.585 42.1253 45.8917 41.4213 45.401 40.504V49.816H39.321V26.168H44.601V28.696C45.1983 27.7787 45.9343 27.0747 46.809 26.584C47.705 26.0933 48.7823 25.848 50.041 25.848C51.1717 25.848 52.2063 26.0613 53.145 26.488C54.0837 26.9147 54.905 27.5227 55.609 28.312C56.313 29.1013 56.857 30.0187 57.241 31.064C57.625 32.1093 57.817 33.2613 57.817 34.52C57.817 36.2053 57.5077 37.7093 56.889 39.032C56.2703 40.3547 55.417 41.4 54.329 42.168C53.2623 42.936 52.0357 43.32 50.649 43.32ZM48.537 38.2C48.985 38.2 49.3903 38.104 49.753 37.912C50.137 37.72 50.4677 37.4533 50.745 37.112C51.0223 36.7707 51.2357 36.376 51.385 35.928C51.5343 35.48 51.609 35 51.609 34.488C51.609 33.9547 51.5237 33.4747 51.353 33.048C51.2037 32.6213 50.9797 32.2587 50.681 31.96C50.3823 31.64 50.0303 31.3947 49.625 31.224C49.2197 31.0533 48.7717 30.968 48.281 30.968C48.0037 30.968 47.7263 31.0107 47.449 31.096C47.193 31.16 46.9477 31.2667 46.713 31.416C46.4783 31.544 46.2437 31.7147 46.009 31.928C45.7957 32.1413 45.593 32.3973 45.401 32.696V35.608C45.593 36.0987 45.849 36.5467 46.169 36.952C46.5103 37.336 46.8837 37.6453 47.289 37.88C47.6943 38.0933 48.1103 38.2 48.537 38.2ZM63.8798 43V26.168H69.9598V43H63.8798ZM63.8798 24.76V19.64H69.9598V24.76H63.8798ZM85.196 43.32C83.7027 43.32 82.38 43.0853 81.228 42.616C80.0973 42.1467 79.1373 41.5067 78.348 40.696C77.5587 39.864 76.9613 38.9253 76.556 37.88C76.1507 36.8347 75.948 35.736 75.948 34.584C75.948 33.048 76.3 31.6187 77.004 30.296C77.7293 28.952 78.7747 27.8747 80.14 27.064C81.5267 26.2533 83.212 25.848 85.196 25.848C87.2227 25.848 88.9293 26.2747 90.316 27.128C91.7027 27.9813 92.7373 29.08 93.42 30.424L87.5 32.216C87.2227 31.8107 86.8813 31.5013 86.476 31.288C86.092 31.0747 85.6547 30.968 85.164 30.968C84.6093 30.968 84.108 31.1173 83.66 31.416C83.212 31.6933 82.8493 32.0987 82.572 32.632C82.316 33.1653 82.188 33.816 82.188 34.584C82.188 35.3307 82.316 35.9813 82.572 36.536C82.8493 37.0693 83.212 37.4853 83.66 37.784C84.108 38.0613 84.6093 38.2 85.164 38.2C85.5053 38.2 85.8147 38.1573 86.092 38.072C86.3693 37.9653 86.6253 37.816 86.86 37.624C87.116 37.432 87.3293 37.208 87.5 36.952L93.42 38.744C92.972 39.64 92.3533 40.4293 91.564 41.112C90.796 41.7947 89.8787 42.3387 88.812 42.744C87.7667 43.128 86.5613 43.32 85.196 43.32ZM107.317 43.32C105.823 43.32 104.501 43.0853 103.349 42.616C102.197 42.1467 101.226 41.5067 100.437 40.696C99.6685 39.864 99.0818 38.9253 98.6765 37.88C98.2925 36.8347 98.1005 35.736 98.1005 34.584C98.1005 33.432 98.2925 32.3333 98.6765 31.288C99.0818 30.2213 99.6685 29.2827 100.437 28.472C101.226 27.6613 102.197 27.0213 103.349 26.552C104.501 26.0827 105.823 25.848 107.317 25.848C108.831 25.848 110.154 26.0827 111.285 26.552C112.437 27.0213 113.397 27.6613 114.165 28.472C114.954 29.2827 115.541 30.2213 115.925 31.288C116.33 32.3333 116.533 33.432 116.533 34.584C116.533 35.736 116.33 36.8347 115.925 37.88C115.541 38.9253 114.954 39.864 114.165 40.696C113.397 41.5067 112.437 42.1467 111.285 42.616C110.154 43.0853 108.831 43.32 107.317 43.32ZM104.341 34.584C104.341 35.3307 104.469 35.9813 104.725 36.536C104.981 37.0693 105.333 37.4853 105.781 37.784C106.229 38.0613 106.741 38.2 107.317 38.2C107.893 38.2 108.405 38.0613 108.853 37.784C109.301 37.4853 109.653 37.0693 109.909 36.536C110.165 35.9813 110.293 35.3307 110.293 34.584C110.293 33.8373 110.165 33.1973 109.909 32.664C109.653 32.1093 109.301 31.6933 108.853 31.416C108.405 31.1173 107.893 30.968 107.317 30.968C106.741 30.968 106.229 31.1173 105.781 31.416C105.333 31.6933 104.981 32.1093 104.725 32.664C104.469 33.1973 104.341 33.8373 104.341 34.584Z" fill="white" fill-opacity="0.75"/>
<circle cx="189.778" cy="31.9999" r="14.2222" transform="rotate(-180 189.778 31.9999)" fill="#007AFF"/>
<circle cx="163.111" cy="31.9998" r="8.88889" transform="rotate(-180 163.111 31.9998)" fill="#007AFF" fill-opacity="0.75"/>
<circle cx="145.333" cy="32.0002" r="5.33333" transform="rotate(-180 145.333 32.0002)" fill="#007AFF" fill-opacity="0.5"/>
</svg>
